<svg width="30" height="31" viewBox="0 0 30 31" fill="none" xmlns="http://www.w3.org/2000/svg">
<path d="M15.0009 28.3429C22.3108 28.3429 28.2362 22.3949 28.2362 15.0572C28.2362 7.7195 22.3108 1.77148 15.0009 1.77148C7.69107 1.77148 1.76562 7.7195 1.76562 15.0572C1.76562 22.3949 7.69107 28.3429 15.0009 28.3429Z" stroke="#E73843" stroke-width="1.5" stroke-linecap="round" stroke-linejoin="round"/>
<path d="M18.9724 10.4076C18.0658 9.49752 16.4696 8.86512 15.0018 8.82526M15.0018 8.82526C13.2548 8.77743 11.693 9.57059 11.693 11.7362C11.693 15.7219 18.9724 13.729 18.9724 17.7147C18.9724 19.9879 17.0348 20.9644 15.0018 20.8913M15.0018 8.82526V6.42188M11.0312 19.0433C11.8836 20.1859 13.4705 20.8369 15.0018 20.8913M15.0018 20.8913V23.6933" stroke="#E73843" stroke-width="1.5" stroke-linecap="round" stroke-linejoin="round"/>
</svg>
