<svg width="30" height="31" viewBox="0 0 30 31" fill="none" xmlns="http://www.w3.org/2000/svg">
<path d="M15 30.9983C11.5554 29.9975 8.69429 27.9563 6.41657 24.8745C4.13886 21.7928 3 18.3203 3 14.4569V5.38611L15 1L27 5.38611V14.4569C27 18.3191 25.8611 21.7911 23.5834 24.8729C21.3057 27.9546 18.4446 29.9953 15 30.9983ZM15 29.2187C17.9714 28.2962 20.4286 26.4512 22.3714 23.6837C24.3143 20.9161 25.2857 17.8411 25.2857 14.4586V6.5317L15 2.79135L4.71429 6.5317V14.4569C4.71429 17.8394 5.68571 20.9145 7.62857 23.682C9.57143 26.4495 12.0286 28.2962 15 29.2187Z" fill="#E73843"/>
</svg>
