<svg width="30" height="31" viewBox="0 0 30 31" fill="none" xmlns="http://www.w3.org/2000/svg">
<path d="M5.0137 18.8824L0 13.6875L5.01528 8.49271L6.13435 9.65882L3.03635 12.864H13.7576L20.9652 3.83812L22.1602 4.93341L14.4499 14.5111H3.03793L6.13277 17.7162L5.0137 18.8824ZM13.4526 7.06141L10.1238 3.64706H5.74394V2H10.7592L14.4737 5.77506L13.4526 7.06141ZM18.6322 28.3941C19.6839 28.3941 20.5695 28.0241 21.2893 27.284C22.01 26.5439 22.3704 25.6364 22.3704 24.5614C22.3704 23.5073 22.0105 22.6053 21.2908 21.8553C20.5701 21.1042 19.6839 20.7287 18.6322 20.7287C17.5796 20.7287 16.6934 21.1042 15.9737 21.8553C15.2529 22.6064 14.8925 23.5084 14.8925 24.5614C14.8925 25.6364 15.2529 26.5439 15.9737 27.284C16.6944 28.0241 17.5806 28.3941 18.6322 28.3941ZM18.6322 30C17.2982 30 16.1391 29.5597 15.1549 28.6791C14.1707 27.7984 13.5848 26.6971 13.3973 25.3751H5.74394V23.728H13.3973C13.5838 22.4125 14.1697 21.309 15.1549 20.4174C16.1391 19.528 17.2982 19.0833 18.6322 19.0833C19.9652 19.0833 21.1243 19.528 22.1096 20.4174C23.0938 21.309 23.6791 22.4125 23.8656 23.728H28.4194V16.0725C28.4194 15.1007 28.1106 14.2536 27.4932 13.5311C26.8746 12.8075 26.0991 12.3803 25.1665 12.2496L21.5975 11.8L22.7829 10.2831L25.3498 10.6026C26.687 10.7805 27.7961 11.3866 28.677 12.4209C29.558 13.4553 29.9989 14.6725 30 16.0725V25.3751H23.8672C23.6797 26.6971 23.0938 27.7984 22.1096 28.6791C21.1254 29.5597 19.9663 30 18.6322 30Z" fill="#E73843"/>
</svg>
