<svg width="268" height="28" viewBox="0 0 268 28" fill="none" xmlns="http://www.w3.org/2000/svg">
<path d="M119.766 0.313148C119.42 0.104379 119.02 0 118.621 0C118.168 0 117.724 0.142341 117.342 0.398557L101.717 11.0742L86.0914 0.398557C85.7096 0.132851 85.2657 0 84.8129 0C84.4134 0 84.0139 0.104379 83.6677 0.313148C82.9041 0.759154 82.4336 1.61321 82.4336 2.54319V19.5768H87.2011V7.19303L100.438 16.2365C100.82 16.5022 101.264 16.6351 101.717 16.6351C102.17 16.6351 102.614 16.4927 102.995 16.2365L116.233 7.19303V19.5768H121V2.54319C121 1.61321 120.53 0.759154 119.766 0.313148Z" fill="#E73843"/>
<path d="M74.3079 12.3916L61.0706 3.34812C60.6889 3.08241 60.2449 2.94956 59.7922 2.94956C59.3394 2.94956 58.8955 3.0919 58.5048 3.34812L45.2676 12.3916V0.0078125H40.5V17.0415C40.5 17.9714 40.9705 18.8255 41.734 19.2715C42.0803 19.4803 42.4798 19.5846 42.8793 19.5846C43.3321 19.5846 43.776 19.4423 44.1578 19.1861L59.7833 8.51041L75.4088 19.1861C75.7906 19.4518 76.2344 19.5846 76.6961 19.5846C77.0956 19.5846 77.4863 19.4803 77.8414 19.2715C78.6049 18.8255 79.0755 17.9714 79.0755 17.0415V0.0078125H74.3079V12.3916Z" fill="#E73843"/>
<path d="M0 2.551V5.72049C0 6.90668 0.754647 7.93155 1.83778 8.19725L29.0581 14.4888H0V19.5846H34.3406C35.6546 19.5846 36.7199 18.4459 36.7199 17.0415V13.7676C36.7199 12.5814 35.9653 11.566 34.8821 11.2908L8.24776 5.10367H36.7199V0.0078125H2.37933C1.06537 0.0078125 0 1.14655 0 2.551Z" fill="#E73843"/>
<line x1="138.5" y1="-2.18557e-08" x2="138.5" y2="27" stroke="white"/>
<g clip-path="url(#clip0_7884_1810)">
<path d="M177.068 18.0346L172.562 3.4375L182.112 12.9887L177.068 18.0346Z" fill="white"/>
<path d="M170.614 1.4879L169.117 -0.0078125L170.189 24.9078L175.395 19.7019L170.614 1.4879Z" fill="white"/>
<path d="M164.551 3.4375L155 12.9887L160.046 18.0346L164.551 3.4375Z" fill="white"/>
<path d="M161.715 19.7019L166.921 24.9078L167.992 -0.0078125L166.497 1.4879L161.715 19.7019Z" fill="white"/>
<path d="M205.454 6.23047V7.20983H198.995V11.6764H204.542V12.4945H198.995V17.7089H205.454V18.6883H197.367V6.23047H205.454Z" fill="white"/>
<path d="M208.133 18.6882V6.23047H209.761V17.7101H216.22V18.6895H208.133V18.6882Z" fill="white"/>
<path d="M226.993 6.23047V7.20983H220.534V11.6764H226.081V12.4945H220.534V17.7089H226.993V18.6883H218.906V6.23047H226.993Z" fill="white"/>
<path d="M233.557 18.6883V7.20983H228.762V6.23047H239.98V7.20983H235.185V18.6883H233.557Z" fill="white"/>
<path d="M241.646 10.377C241.893 9.64248 242.283 8.96856 242.813 8.35525C243.342 7.74194 244.018 7.23407 244.837 6.83287C245.655 6.43167 246.636 6.23047 247.777 6.23047C248.919 6.23047 249.931 6.4341 250.779 6.84136C251.626 7.24862 252.326 7.76133 252.88 8.38191C253.434 9.00129 253.843 9.67521 254.108 10.4037C254.374 11.1321 254.506 11.817 254.506 12.4594C254.506 12.8836 254.445 13.3308 254.324 13.8011C254.203 14.2714 254.023 14.7393 253.788 15.2035C253.552 15.6677 253.249 16.1102 252.88 16.5283C252.511 16.9477 252.076 17.3174 251.575 17.6386C251.073 17.9598 250.508 18.2155 249.879 18.4046C249.25 18.5937 248.55 18.6883 247.777 18.6883C246.636 18.6883 245.655 18.4846 244.837 18.0774C244.018 17.6701 243.344 17.1562 242.813 16.5368C242.282 15.9174 241.893 15.2435 241.646 14.5151C241.397 13.7866 241.273 13.1018 241.273 12.4581C241.273 11.8145 241.397 11.1103 241.646 10.3758V10.377ZM243.34 14.6702C243.587 15.3417 243.928 15.9174 244.361 16.3998C244.793 16.881 245.304 17.258 245.891 17.5271C246.479 17.7974 247.119 17.9319 247.811 17.9319C248.504 17.9319 249.135 17.7974 249.74 17.5271C250.345 17.258 250.876 16.8822 251.331 16.3998C251.787 15.9174 252.147 15.3417 252.412 14.6702C252.678 13.9987 252.81 13.2618 252.81 12.4594C252.81 11.657 252.678 10.9188 252.412 10.2485C252.147 9.57703 251.787 9.00129 251.331 8.51888C250.876 8.03647 250.346 7.66194 249.74 7.39164C249.134 7.12256 248.491 6.98681 247.811 6.98681C247.131 6.98681 246.479 7.12135 245.891 7.39164C245.304 7.66194 244.793 8.03647 244.361 8.51888C243.928 9.00008 243.589 9.57703 243.34 10.2485C243.092 10.92 242.968 11.657 242.968 12.4594C242.968 13.2618 243.092 13.9999 243.34 14.6702Z" fill="white"/>
<path d="M268 6.23047V18.6883H267.91L257.98 9.16734H257.909V18.6883H257.086V6.23047H257.176L267.105 15.7514H267.177V6.23047H268Z" fill="white"/>
<path d="M194.677 9.81823C194.656 9.36855 194.563 8.94311 194.396 8.54433C194.204 8.08738 193.923 7.68497 193.546 7.33468C193.172 6.98438 192.702 6.70924 192.141 6.50804C191.801 6.3844 191.427 6.29835 191.023 6.25229C190.867 6.24501 190.711 6.23774 190.555 6.23047H189.54H188.026H186.398V18.687H188.026V13.7502H190.57C190.716 13.743 190.861 13.7369 191.007 13.7296C191.418 13.6836 191.797 13.5975 192.141 13.4727C192.702 13.2715 193.17 12.9951 193.546 12.646C193.923 12.2957 194.205 11.8933 194.396 11.4364C194.563 11.0376 194.656 10.6121 194.677 10.1625C194.682 10.114 194.682 10.0655 194.682 10.0146C194.682 9.94914 194.679 9.8849 194.677 9.81944V9.81823ZM192.741 11.0182C192.615 11.3794 192.427 11.7067 192.178 11.9976C191.926 12.2872 191.609 12.5212 191.23 12.6993C190.848 12.8775 190.406 12.966 189.905 12.966H188.026V7.01347H189.905C190.406 7.01347 190.848 7.10196 191.23 7.28013C191.609 7.45831 191.927 7.69224 192.178 7.98193C192.427 8.27404 192.615 8.60009 192.741 8.96129C192.862 9.30673 192.923 9.64975 192.928 9.99035C192.923 10.3309 192.862 10.674 192.741 11.0194V11.0182Z" fill="white"/>
<path d="M186.526 24.253C186.611 23.9997 186.744 23.7669 186.924 23.5548C187.105 23.3427 187.337 23.167 187.617 23.0288C187.897 22.8906 188.231 22.8203 188.621 22.8203C189.012 22.8203 189.357 22.8906 189.647 23.0312C189.937 23.1718 190.176 23.3488 190.366 23.5633C190.555 23.7766 190.694 24.0106 190.785 24.2615C190.876 24.5136 190.921 24.7499 190.921 24.9718C190.921 25.1184 190.9 25.2724 190.859 25.4348C190.818 25.5972 190.756 25.7584 190.676 25.9196C190.595 26.0796 190.492 26.2323 190.366 26.3778C190.24 26.522 190.09 26.6505 189.92 26.7608C189.749 26.8723 189.555 26.9596 189.34 27.025C189.126 27.0905 188.886 27.1232 188.621 27.1232C188.231 27.1232 187.897 27.0529 187.617 26.9123C187.337 26.7717 187.106 26.5947 186.924 26.3802C186.743 26.1657 186.611 25.9329 186.526 25.682C186.441 25.4311 186.398 25.1936 186.398 24.9718C186.398 24.7499 186.441 24.5063 186.526 24.253ZM187.105 25.7366C187.19 25.9681 187.306 26.1681 187.454 26.3341C187.602 26.5002 187.777 26.6299 187.978 26.7232C188.179 26.8165 188.397 26.8626 188.634 26.8626C188.87 26.8626 189.086 26.8165 189.293 26.7232C189.5 26.6299 189.681 26.5002 189.837 26.3341C189.992 26.1681 190.116 25.9693 190.207 25.7366C190.298 25.5051 190.343 25.2505 190.343 24.973C190.343 24.6954 190.298 24.4409 190.207 24.2094C190.116 23.9778 189.993 23.7779 189.837 23.6118C189.682 23.4457 189.5 23.3161 189.293 23.2227C189.086 23.1294 188.866 23.0833 188.634 23.0833C188.401 23.0833 188.178 23.1306 187.978 23.2227C187.777 23.3161 187.602 23.4457 187.454 23.6118C187.306 23.7779 187.19 23.9778 187.105 24.2094C187.02 24.4409 186.978 24.6954 186.978 24.973C186.978 25.2505 187.02 25.5051 187.105 25.7366Z" fill="white"/>
<path d="M194.357 22.8984V23.3627H194.563C194.845 23.3627 195.095 23.4087 195.311 23.4996C195.526 23.5905 195.708 23.7117 195.856 23.862C196.003 24.0123 196.116 24.1832 196.192 24.3735C196.268 24.5638 196.307 24.7602 196.307 24.9626C196.307 25.1165 196.277 25.2862 196.216 25.4705C196.156 25.6547 196.053 25.8256 195.907 25.9844C195.762 26.1432 195.57 26.2753 195.333 26.3832C195.095 26.4898 194.797 26.5432 194.439 26.5432H194.357V27.0607H193.819V26.5432H193.741C193.382 26.5432 193.083 26.4898 192.843 26.3832C192.603 26.2765 192.41 26.1432 192.267 25.9844C192.123 25.8256 192.021 25.6547 191.959 25.4705C191.899 25.2862 191.867 25.1165 191.867 24.9626C191.867 24.7602 191.905 24.5638 191.98 24.3735C192.055 24.1832 192.167 24.0136 192.314 23.862C192.462 23.7117 192.645 23.5905 192.865 23.4996C193.083 23.4087 193.335 23.3627 193.619 23.3627H193.82V22.8984H194.358H194.357ZM193.819 23.6124H193.741C193.507 23.6124 193.307 23.6536 193.141 23.7348C192.975 23.816 192.839 23.9202 192.735 24.0463C192.631 24.1735 192.553 24.3178 192.504 24.4802C192.454 24.6426 192.43 24.8038 192.43 24.9614C192.43 25.1517 192.462 25.3274 192.528 25.4899C192.593 25.6523 192.685 25.7941 192.804 25.9153C192.923 26.0365 193.065 26.1311 193.232 26.2014C193.398 26.2704 193.582 26.3056 193.785 26.3056H193.82V23.6124H193.819ZM194.398 26.3056C194.599 26.3056 194.782 26.2704 194.947 26.2014C195.113 26.1323 195.255 26.0365 195.373 25.9153C195.491 25.7941 195.582 25.6535 195.648 25.4899C195.713 25.3274 195.746 25.1505 195.746 24.9614C195.746 24.8026 195.722 24.6426 195.672 24.4802C195.622 24.3178 195.546 24.1735 195.442 24.0463C195.337 23.919 195.203 23.816 195.037 23.7348C194.871 23.6536 194.672 23.6124 194.439 23.6124H194.357V26.3056H194.398Z" fill="white"/>
<path d="M200.663 22.8984H201.201V27.0595H200.663V23.3445L198.21 27.0595H197.672V22.8984H198.21V26.5723L200.663 22.8984Z" fill="white"/>
<path d="M206.952 26.7323V27.6837H206.448V27.0595H202.914V22.8984H203.452V26.7323H205.912V22.8984H206.45V26.7323H206.953H206.952Z" fill="white"/>
<path d="M211.304 22.8984H211.842V27.0595H211.304V23.3445L208.851 27.0595H208.312V22.8984H208.851V26.5723L211.304 22.8984Z" fill="white"/>
<path d="M213.815 25.8353L213.295 27.0595H213.023L214.774 22.8984H215.069L216.997 27.0595H216.423L215.856 25.8353H213.816H213.815ZM214.802 23.5651H214.779L213.928 25.5687H215.731L214.803 23.5651H214.802Z" fill="white"/>
<path d="M221.963 27.0583H221.378L219.882 23.5627H219.859L218.707 26.5056C218.628 26.708 218.538 26.8619 218.438 26.9698C218.337 27.0765 218.224 27.1298 218.098 27.1298C218.019 27.1298 217.942 27.1238 217.864 27.1116C217.788 27.0995 217.715 27.0825 217.648 27.0583L217.808 26.6547C217.847 26.6741 217.891 26.6983 217.938 26.7262C217.985 26.7541 218.035 26.7674 218.086 26.7674C218.216 26.7674 218.311 26.7141 218.372 26.6074C218.433 26.5007 218.497 26.3577 218.565 26.1795L219.842 22.8984H220.167L221.965 27.0595L221.963 27.0583Z" fill="white"/>
<path d="M223.145 22.8997H223.683V24.719H224.587C224.848 24.719 225.069 24.7517 225.252 24.8172C225.435 24.8826 225.586 24.9662 225.702 25.0693C225.818 25.1723 225.903 25.2911 225.957 25.4256C226.01 25.5602 226.037 25.6947 226.037 25.8293C226.037 25.9723 226.012 26.1153 225.963 26.2608C225.913 26.405 225.832 26.5371 225.718 26.6559C225.604 26.7747 225.452 26.8716 225.262 26.9468C225.073 27.0219 224.837 27.0595 224.553 27.0595H223.146V22.8984L223.145 22.8997ZM224.521 26.7989C224.66 26.7989 224.784 26.7747 224.897 26.7274C225.01 26.6801 225.106 26.6147 225.187 26.531C225.268 26.4474 225.331 26.3517 225.376 26.2426C225.421 26.1335 225.444 26.0171 225.444 25.8947C225.444 25.7638 225.42 25.6426 225.37 25.5287C225.32 25.4159 225.251 25.319 225.163 25.2378C225.074 25.1565 224.968 25.0935 224.844 25.0475C224.719 25.0014 224.584 24.9796 224.439 24.9796H223.683V26.7989H224.523H224.521Z" fill="white"/>
<path d="M227.933 27.0595H227.395V22.8984H227.933V24.7178H230.409V22.8984H230.947V27.0595H230.409V24.9905H227.933V27.0595Z" fill="white"/>
<path d="M232.66 22.8997H233.198V24.719H234.103C234.363 24.719 234.585 24.7517 234.768 24.8172C234.951 24.8826 235.101 24.9662 235.218 25.0693C235.334 25.1723 235.419 25.2911 235.472 25.4256C235.526 25.5602 235.552 25.6947 235.552 25.8293C235.552 25.9723 235.528 26.1153 235.478 26.2608C235.429 26.405 235.347 26.5371 235.233 26.6559C235.119 26.7747 234.968 26.8716 234.778 26.9468C234.589 27.0219 234.352 27.0595 234.069 27.0595H232.661V22.8984L232.66 22.8997ZM234.037 26.7989C234.175 26.7989 234.3 26.7747 234.413 26.7274C234.526 26.6801 234.621 26.6147 234.703 26.531C234.784 26.4474 234.847 26.3517 234.892 26.2426C234.936 26.1335 234.959 26.0171 234.959 25.8947C234.959 25.7638 234.935 25.6426 234.886 25.5287C234.836 25.4159 234.767 25.319 234.678 25.2378C234.59 25.1565 234.483 25.0935 234.359 25.0475C234.235 25.0014 234.1 24.9796 233.955 24.9796H233.198V26.7989H234.038H234.037ZM236.679 22.8997V27.0607H236.141V22.8997H236.679Z" fill="white"/>
<path d="M241.386 22.895H241.924V27.0561H241.386V23.3411L238.933 27.0561H238.395V22.895H238.933V26.5689L241.386 22.895ZM239.845 22.5835C239.73 22.5775 239.619 22.5569 239.511 22.5205C239.402 22.4854 239.308 22.4272 239.23 22.3484C239.151 22.2696 239.111 22.1557 239.111 22.009V21.9375H239.672C239.668 21.9569 239.665 21.9763 239.664 21.9945C239.661 22.0126 239.66 22.0308 239.66 22.0514C239.66 22.1351 239.678 22.2005 239.713 22.2478C239.748 22.2951 239.791 22.3314 239.841 22.3545C239.89 22.3787 239.941 22.392 239.994 22.3957C240.048 22.3993 240.091 22.4017 240.128 22.4017C240.164 22.4017 240.207 22.3993 240.258 22.3957C240.308 22.392 240.359 22.3775 240.408 22.3545C240.458 22.3302 240.5 22.2951 240.535 22.2478C240.57 22.2005 240.588 22.1351 240.588 22.0514C240.588 22.032 240.588 22.0126 240.585 21.9945C240.581 21.9763 240.58 21.9581 240.576 21.9375H241.15V22.009C241.15 22.1557 241.11 22.2684 241.031 22.3484C240.952 22.4272 240.857 22.4854 240.75 22.5205C240.641 22.5557 240.528 22.5775 240.411 22.5835C240.295 22.5896 240.201 22.592 240.13 22.592C240.055 22.592 239.961 22.5884 239.845 22.5835Z" fill="white"/>
<path d="M249.507 26.7795H250.087V27.6825H249.584V27.0583H245.972V27.6825H245.469V26.7795H246.024L247.507 22.8984H247.869L249.506 26.7795H249.507ZM247.568 23.5457H247.544L246.303 26.7795H248.939L247.568 23.5457Z" fill="white"/>
<path d="M254.261 22.8984H254.799V27.0595H254.261V23.3445L251.808 27.0595H251.27V22.8984H251.808V26.5723L254.261 22.8984Z" fill="white"/>
<path d="M260.299 27.0583H259.714L258.218 23.5627H258.195L257.043 26.5056C256.964 26.708 256.874 26.8619 256.773 26.9698C256.673 27.0765 256.56 27.1298 256.434 27.1298C256.355 27.1298 256.278 27.1238 256.2 27.1116C256.124 27.0995 256.051 27.0825 255.984 27.0583L256.144 26.6547C256.183 26.6741 256.227 26.6983 256.274 26.7262C256.321 26.7541 256.371 26.7674 256.422 26.7674C256.552 26.7674 256.647 26.7141 256.708 26.6074C256.769 26.5007 256.833 26.3577 256.901 26.1795L258.178 22.8984H258.503L260.301 27.0595L260.299 27.0583Z" fill="white"/>
<path d="M264.148 22.8984V23.2257H262.014V24.7178H263.846V25.0026H262.014V26.7323H264.148V27.0595H261.477V22.8984H264.148Z" fill="white"/>
<path d="M267.996 24.0911C267.989 23.942 267.96 23.8002 267.905 23.6681C267.843 23.5166 267.753 23.3821 267.631 23.2657C267.51 23.1493 267.36 23.0572 267.179 22.9906C267.07 22.9493 266.949 22.9215 266.819 22.9057C266.77 22.9033 266.719 22.9009 266.669 22.8984H266.343H265.856H265.332V27.0389H265.856V25.3977H266.674C266.721 25.3953 266.767 25.3929 266.814 25.3905C266.947 25.3747 267.069 25.3468 267.179 25.3044C267.36 25.2378 267.51 25.1456 267.631 25.0293C267.753 24.9129 267.843 24.7796 267.905 24.6269C267.96 24.4947 267.989 24.3529 267.996 24.2038C267.997 24.1881 267.997 24.1711 267.997 24.1542C267.997 24.1323 267.997 24.1105 267.996 24.0899V24.0911ZM267.373 24.4899C267.333 24.6099 267.273 24.719 267.191 24.8159C267.11 24.9117 267.008 24.9905 266.886 25.0487C266.764 25.1081 266.62 25.1372 266.459 25.1372H265.854V23.1578H266.459C266.62 23.1578 266.762 23.1869 266.886 23.2463C267.008 23.3057 267.11 23.3833 267.191 23.479C267.271 23.576 267.332 23.6851 267.373 23.8051C267.412 23.9202 267.431 24.0342 267.433 24.1469C267.431 24.2596 267.412 24.3735 267.373 24.4887V24.4899Z" fill="white"/>
</g>
<defs>
<clipPath id="clip0_7884_1810">
<rect width="113" height="27.6827" fill="white" transform="translate(155)"/>
</clipPath>
</defs>
</svg>
