<svg width="245" height="31" viewBox="0 0 245 31" fill="none" xmlns="http://www.w3.org/2000/svg">
<path d="M110.726 7.26046C110.406 7.07901 110.036 6.98828 109.667 6.98828C109.248 6.98828 108.838 7.112 108.485 7.3347L94.0389 16.6138L79.5927 7.3347C79.2397 7.10375 78.8293 6.98828 78.4107 6.98828C78.0413 6.98828 77.672 7.07901 77.3519 7.26046C76.646 7.64812 76.2109 8.39045 76.2109 9.19876V24.004H80.6187V13.2403L92.8569 21.1007C93.2099 21.3317 93.6203 21.4471 94.0389 21.4471C94.4575 21.4471 94.8679 21.3234 95.2208 21.1007L107.459 13.2403V24.004H111.867V9.19876C111.867 8.39045 111.432 7.64812 110.726 7.26046Z" fill="white"/>
<path d="M68.7016 17.7598L56.4634 9.89942C56.1105 9.66847 55.7001 9.553 55.2815 9.553C54.8628 9.553 54.4524 9.67672 54.0913 9.89942L41.853 17.7598V6.99609H37.4453V21.8014C37.4453 22.6097 37.8803 23.352 38.5862 23.7397C38.9063 23.9211 39.2757 24.0119 39.6451 24.0119C40.0637 24.0119 40.4741 23.8881 40.827 23.6654L55.2732 14.3864L69.7195 23.6654C70.0724 23.8964 70.4828 24.0119 70.9096 24.0119C71.279 24.0119 71.6402 23.9211 71.9685 23.7397C72.6744 23.352 73.1094 22.6097 73.1094 21.8014V6.99609H68.7016V17.7598Z" fill="white"/>
<path d="M0 9.20658V11.9614C0 12.9924 0.697693 13.8832 1.69908 14.1142L26.865 19.5826H0V24.0119H31.7488C32.9636 24.0119 33.9486 23.0221 33.9486 21.8014V18.9558C33.9486 17.9248 33.2509 17.0422 32.2495 16.803L7.62529 11.4253H33.9486V6.99609H2.19976C0.984963 6.99609 0 7.98586 0 9.20658Z" fill="white"/>
<line x1="126.338" y1="3.83794" x2="126.338" y2="27.1621" stroke="white" stroke-width="0.675889" stroke-linecap="round"/>
<path d="M147.821 3.34766C148.26 3.79313 148.704 4.23501 149.136 4.68767C149.212 4.76791 149.26 4.88885 149.289 5.00022C150.803 10.7746 152.312 16.5502 153.823 22.3246C153.867 22.4917 153.897 22.624 153.743 22.7773C152.15 24.3604 150.567 25.9543 148.981 27.5446C148.935 27.5913 148.881 27.6296 148.789 27.7057C148.44 19.5644 148.093 11.4692 147.746 3.374C147.771 3.36562 147.796 3.35664 147.821 3.34826V3.34766Z" fill="white"/>
<path d="M145.633 27.728C145.509 27.6112 145.436 27.5465 145.367 27.4771C143.822 25.9281 142.28 24.3773 140.732 22.8325C140.583 22.684 140.536 22.5625 140.595 22.3416C142.112 16.5767 143.617 10.8083 145.131 5.04229C145.172 4.8884 145.261 4.73093 145.37 4.61537C145.775 4.18487 146.198 3.77172 146.679 3.28613C146.329 11.4735 145.982 19.5627 145.633 27.728Z" fill="white"/>
<path d="M151.102 6.70861C154.235 9.85208 157.32 12.9482 160.386 16.0241C158.766 17.6491 157.133 19.2873 155.482 20.9452C154.028 16.221 152.572 11.4879 151.102 6.70801V6.70861Z" fill="white"/>
<path d="M143.304 6.74805C141.841 11.5028 140.387 16.2282 138.941 20.9308C137.299 19.2836 135.668 17.6472 134.055 16.0288C137.108 12.9649 140.193 9.86996 143.304 6.74805Z" fill="white"/>
<path d="M231.027 15.3111C231.021 17.6336 229.657 20.4328 226.614 21.3118C224.193 22.0111 221.914 21.7255 219.994 19.9335C218.901 18.9132 218.307 17.6193 218.145 16.1326C217.821 13.1639 219.733 10.3354 222.631 9.64504C225.139 9.04748 227.443 9.49355 229.316 11.4006C230.426 12.5304 230.97 13.9237 231.028 15.3111H231.027ZM229.347 15.9595C229.348 14.4986 229.151 13.6699 228.686 12.7747C227.012 9.54983 222.589 9.26303 220.688 12.2981C219.486 14.2159 219.449 16.2757 220.425 18.3031C221.644 20.834 224.72 21.6513 227.048 20.0909C228.647 19.0186 229.298 17.4349 229.347 15.9595Z" fill="white"/>
<path d="M234.342 12.2785V21.6311H233.535V9.33984C236.824 12.5037 240.054 15.61 243.335 18.7667V9.43984H244.14V21.703C240.864 18.5523 237.635 15.4466 234.342 12.2785Z" fill="white"/>
<path d="M183.19 20.6423V21.6302C183.097 21.6374 183.012 21.65 182.927 21.65C180.476 21.6512 178.025 21.6476 175.575 21.656C175.333 21.6566 175.277 21.5805 175.277 21.35C175.283 17.4671 175.282 13.5847 175.282 9.7018C175.282 9.62336 175.29 9.54553 175.296 9.44434H183.187V10.4095H176.935V14.732H182.286V15.5654H176.94V20.6417H183.191L183.19 20.6423Z" fill="white"/>
<path d="M166.213 16.8101V21.6271H164.629V9.42087C164.709 9.42087 164.803 9.42087 164.897 9.42087C166.157 9.42087 167.416 9.4053 168.676 9.42506C169.925 9.44541 171.042 9.83161 171.872 10.8124C173.459 12.6883 172.712 15.539 170.408 16.4616C169.821 16.697 169.212 16.8077 168.582 16.8095C167.801 16.8113 167.021 16.8095 166.213 16.8095V16.8101ZM166.223 15.997C166.921 15.997 167.602 16.0186 168.283 15.9928C169.731 15.9371 170.83 14.842 170.948 13.2972C171.04 12.0961 170.346 10.6166 168.786 10.3226C168.018 10.1777 167.21 10.24 166.42 10.2118C166.354 10.2094 166.288 10.2292 166.223 10.2388V15.9976V15.997Z" fill="white"/>
<path d="M197.912 20.6534H204.187V21.6341H196.312V9.44824H204.18V10.4039H197.92V14.74H203.292V15.5645H197.912V20.654V20.6534Z" fill="white"/>
<path d="M205.894 9.43359H216.878C216.878 9.7186 216.893 9.99463 216.866 10.2671C216.86 10.3251 216.704 10.4096 216.615 10.4108C215.951 10.4227 215.286 10.4174 214.621 10.4174C213.927 10.4174 213.232 10.4174 212.538 10.4174H212.197V21.6297H210.591V10.4179H210.255C208.906 10.4179 207.557 10.412 206.208 10.4233C205.964 10.4251 205.866 10.3611 205.89 10.1078C205.91 9.89284 205.894 9.67489 205.894 9.43359H205.894Z" fill="white"/>
<path d="M185.809 9.42676H187.393V20.6415H193.707C193.707 20.9444 193.722 21.2211 193.695 21.4935C193.689 21.5528 193.534 21.6396 193.446 21.6408C192.742 21.6528 192.037 21.6474 191.333 21.6474C189.616 21.6474 187.899 21.6474 186.182 21.6474H185.809V9.42676H185.809Z" fill="white"/>
</svg>
