<svg width="74" height="74" viewBox="0 0 74 74" fill="none" xmlns="http://www.w3.org/2000/svg">
<path d="M58.5846 27.7493C58.5846 24.915 58.0264 22.1084 56.9417 19.4898C55.857 16.8712 54.2672 14.4918 52.263 12.4876C50.2588 10.4834 47.8795 8.89361 45.2609 7.80895C42.6423 6.72428 39.8357 6.16602 37.0013 6.16602C34.1669 6.16602 31.3603 6.72428 28.7417 7.80895C26.1231 8.89361 23.7438 10.4834 21.7396 12.4876C19.7354 14.4918 18.1456 16.8712 17.0609 19.4898C15.9762 22.1084 15.418 24.915 15.418 27.7493C15.418 32.0259 16.6791 36.0034 18.8251 39.3581H18.8004L37.0013 67.8327L55.2022 39.3581H55.1806C57.4035 35.8943 58.585 31.8651 58.5846 27.7493ZM37.0013 36.9994C34.548 36.9994 32.1953 36.0248 30.4606 34.2901C28.7259 32.5554 27.7513 30.2026 27.7513 27.7493C27.7513 25.2961 28.7259 22.9433 30.4606 21.2086C32.1953 19.4739 34.548 18.4993 37.0013 18.4993C39.4546 18.4993 41.8073 19.4739 43.542 21.2086C45.2768 22.9433 46.2513 25.2961 46.2513 27.7493C46.2513 30.2026 45.2768 32.5554 43.542 34.2901C41.8073 36.0248 39.4546 36.9994 37.0013 36.9994Z" fill="#222222"/>
<circle cx="37" cy="28" r="10" fill="#222222"/>
<path d="M53.6534 25.8197C53.5561 25.7622 53.4438 25.7334 53.3316 25.7334C53.2044 25.7334 53.0796 25.7726 52.9724 25.8433L48.5821 28.786L44.1918 25.8433C44.0845 25.77 43.9598 25.7334 43.8326 25.7334C43.7203 25.7334 43.6081 25.7622 43.5108 25.8197C43.2963 25.9427 43.1641 26.1781 43.1641 26.4344V31.1297H44.5036V27.7161L48.2229 30.2089C48.3301 30.2822 48.4549 30.3188 48.5821 30.3188C48.7093 30.3188 48.834 30.2795 48.9413 30.2089L52.6606 27.7161V31.1297H54.0001V26.4344C54.0001 26.1781 53.8679 25.9427 53.6534 25.8197Z" fill="white"/>
<path d="M40.8818 29.1499L37.1625 26.6571C37.0553 26.5838 36.9305 26.5472 36.8033 26.5472C36.6761 26.5472 36.5514 26.5864 36.4416 26.6571L32.7223 29.1499V25.7363H31.3828V30.4316C31.3828 30.6879 31.515 30.9233 31.7295 31.0463C31.8268 31.1038 31.9391 31.1326 32.0513 31.1326C32.1786 31.1326 32.3033 31.0934 32.4105 31.0227L36.8008 28.08L41.1911 31.0227C41.2984 31.096 41.4231 31.1326 41.5528 31.1326C41.6651 31.1326 41.7748 31.1038 41.8746 31.0463C42.0891 30.9233 42.2213 30.6879 42.2213 30.4316V25.7363H40.8818V29.1499Z" fill="white"/>
<path d="M20 26.4373V27.311C20 27.638 20.212 27.9205 20.5164 27.9937L28.1644 29.7279H20V31.1326H29.6487C30.0178 31.1326 30.3172 30.8187 30.3172 30.4316V29.5291C30.3172 29.2022 30.1052 28.9223 29.8008 28.8464L22.3174 27.141H30.3172V25.7363H20.6685C20.2993 25.7363 20 26.0502 20 26.4373Z" fill="white"/>
</svg>
